<svg width="50" height="50" viewBox="0 0 50 50" fill="none" xmlns="http://www.w3.org/2000/svg">
<mask id="mask0_530_3598" style="mask-type:alpha" maskUnits="userSpaceOnUse" x="0" y="0" width="50" height="50">
<rect width="50" height="50" fill="#D9D9D9"/>
</mask>
<g mask="url(#mask0_530_3598)">
<path d="M22.9158 27.0837V33.3337C22.9158 33.9239 23.1154 34.4187 23.5147 34.818C23.914 35.2173 24.4088 35.417 24.9991 35.417C25.5894 35.417 26.0842 35.2173 26.4835 34.818C26.8828 34.4187 27.0824 33.9239 27.0824 33.3337V27.0837H33.3324C33.9227 27.0837 34.4175 26.884 34.8168 26.4847C35.2161 26.0854 35.4158 25.5906 35.4158 25.0003C35.4158 24.41 35.2161 23.9153 34.8168 23.516C34.4175 23.1166 33.9227 22.917 33.3324 22.917H27.0824V16.667C27.0824 16.0767 26.8828 15.5819 26.4835 15.1826C26.0842 14.7833 25.5894 14.5837 24.9991 14.5837C24.4088 14.5837 23.914 14.7833 23.5147 15.1826C23.1154 15.5819 22.9158 16.0767 22.9158 16.667V22.917H16.6658C16.0755 22.917 15.5807 23.1166 15.1814 23.516C14.7821 23.9153 14.5824 24.41 14.5824 25.0003C14.5824 25.5906 14.7821 26.0854 15.1814 26.4847C15.5807 26.884 16.0755 27.0837 16.6658 27.0837H22.9158ZM24.9991 45.8337C22.1172 45.8337 19.4088 45.2868 16.8741 44.193C14.3394 43.0993 12.1345 41.6149 10.2595 39.7399C8.38452 37.8649 6.90015 35.6601 5.8064 33.1253C4.71265 30.5906 4.16577 27.8823 4.16577 25.0003C4.16577 22.1184 4.71265 19.41 5.8064 16.8753C6.90015 14.3406 8.38452 12.1357 10.2595 10.2607C12.1345 8.38574 14.3394 6.90137 16.8741 5.80762C19.4088 4.71387 22.1172 4.16699 24.9991 4.16699C27.8811 4.16699 30.5894 4.71387 33.1241 5.80762C35.6588 6.90137 37.8637 8.38574 39.7387 10.2607C41.6137 12.1357 43.0981 14.3406 44.1918 16.8753C45.2856 19.41 45.8324 22.1184 45.8324 25.0003C45.8324 27.8823 45.2856 30.5906 44.1918 33.1253C43.0981 35.6601 41.6137 37.8649 39.7387 39.7399C37.8637 41.6149 35.6588 43.0993 33.1241 44.193C30.5894 45.2868 27.8811 45.8337 24.9991 45.8337Z" fill="#FA9E52"/>
</g>
</svg>
