<svg width="24" height="24" viewBox="0 0 24 24" fill="none" xmlns="http://www.w3.org/2000/svg">
<mask id="mask0_406_2497" style="mask-type:alpha" maskUnits="userSpaceOnUse" x="0" y="0" width="24" height="24">
<rect width="24" height="24" fill="#D9D9D9"/>
</mask>
<g mask="url(#mask0_406_2497)">
<path d="M11.9998 13.4012L9.0998 16.3012C8.91647 16.4845 8.68314 16.5762 8.3998 16.5762C8.11647 16.5762 7.88314 16.4845 7.6998 16.3012C7.51647 16.1178 7.4248 15.8845 7.4248 15.6012C7.4248 15.3178 7.51647 15.0845 7.6998 14.9012L10.5998 12.0012L7.6998 9.12617C7.51647 8.94284 7.4248 8.70951 7.4248 8.42617C7.4248 8.14284 7.51647 7.90951 7.6998 7.72617C7.88314 7.54284 8.11647 7.45117 8.3998 7.45117C8.68314 7.45117 8.91647 7.54284 9.0998 7.72617L11.9998 10.6262L14.8748 7.72617C15.0581 7.54284 15.2915 7.45117 15.5748 7.45117C15.8581 7.45117 16.0915 7.54284 16.2748 7.72617C16.4748 7.92617 16.5748 8.16367 16.5748 8.43867C16.5748 8.71367 16.4748 8.94284 16.2748 9.12617L13.3748 12.0012L16.2748 14.9012C16.4581 15.0845 16.5498 15.3178 16.5498 15.6012C16.5498 15.8845 16.4581 16.1178 16.2748 16.3012C16.0748 16.5012 15.8373 16.6012 15.5623 16.6012C15.2873 16.6012 15.0581 16.5012 14.8748 16.3012L11.9998 13.4012Z" fill="#666666"/>
</g>
</svg>
