<svg width="21" height="20" viewBox="0 0 21 20" fill="none" xmlns="http://www.w3.org/2000/svg">
<mask id="mask0_406_2074" style="mask-type:alpha" maskUnits="userSpaceOnUse" x="0" y="0" width="21" height="20">
<rect x="0.5" width="20" height="20" fill="#D9D9D9"/>
</mask>
<g mask="url(#mask0_406_2074)">
<path d="M10.5 11.1673L8.08333 13.584C7.93056 13.7368 7.73611 13.8132 7.5 13.8132C7.26389 13.8132 7.06944 13.7368 6.91667 13.584C6.76389 13.4312 6.6875 13.2368 6.6875 13.0007C6.6875 12.7645 6.76389 12.5701 6.91667 12.4173L9.33333 10.0007L6.91667 7.60482C6.76389 7.45204 6.6875 7.2576 6.6875 7.02148C6.6875 6.78537 6.76389 6.59093 6.91667 6.43815C7.06944 6.28537 7.26389 6.20898 7.5 6.20898C7.73611 6.20898 7.93056 6.28537 8.08333 6.43815L10.5 8.85482L12.8958 6.43815C13.0486 6.28537 13.2431 6.20898 13.4792 6.20898C13.7153 6.20898 13.9097 6.28537 14.0625 6.43815C14.2292 6.60482 14.3125 6.80273 14.3125 7.0319C14.3125 7.26107 14.2292 7.45204 14.0625 7.60482L11.6458 10.0007L14.0625 12.4173C14.2153 12.5701 14.2917 12.7645 14.2917 13.0007C14.2917 13.2368 14.2153 13.4312 14.0625 13.584C13.8958 13.7507 13.6979 13.834 13.4688 13.834C13.2396 13.834 13.0486 13.7507 12.8958 13.584L10.5 11.1673Z" fill="#FA9E52"/>
</g>
</svg>
