<svg width="20" height="20" viewBox="0 0 20 20" fill="none" xmlns="http://www.w3.org/2000/svg">
<path d="M6.74974 7.25104L9.99974 4.00104L13.2497 7.25104C13.5747 7.57604 14.0914 7.57604 14.4164 7.25104C14.7414 6.92604 14.7414 6.40938 14.4164 6.08437L10.5914 2.25937C10.2664 1.93437 9.74141 1.93437 9.41641 2.25937L5.58307 6.08437C5.25807 6.40937 5.25807 6.92604 5.58307 7.25104C5.90807 7.57604 6.42474 7.57604 6.74974 7.25104ZM6.74974 12.751L9.99974 16.001L13.2497 12.751C13.5747 12.426 14.0914 12.426 14.4164 12.751C14.7414 13.076 14.7414 13.5927 14.4164 13.9177L10.5914 17.7427C10.2664 18.0677 9.74141 18.0677 9.41641 17.7427L5.58307 13.9177C5.25807 13.5927 5.25807 13.076 5.58307 12.751C5.90807 12.426 6.42474 12.426 6.74974 12.751Z" fill="#666666"/>
</svg>
