<svg width="30" height="30" viewBox="0 0 30 30" fill="none" xmlns="http://www.w3.org/2000/svg">
<mask id="mask0_1117_2201" style="mask-type:alpha" maskUnits="userSpaceOnUse" x="0" y="0" width="30" height="30">
<rect width="30" height="30" fill="#D9D9D9"/>
</mask>
<g mask="url(#mask0_1117_2201)">
<path d="M10 22.5C9.64583 22.5 9.34896 22.3802 9.10938 22.1406C8.86979 21.901 8.75 21.6042 8.75 21.25C8.75 20.8958 8.86979 20.599 9.10938 20.3594C9.34896 20.1198 9.64583 20 10 20C10.3542 20 10.651 20.1198 10.8906 20.3594C11.1302 20.599 11.25 20.8958 11.25 21.25C11.25 21.6042 11.1302 21.901 10.8906 22.1406C10.651 22.3802 10.3542 22.5 10 22.5ZM15 22.5C14.6458 22.5 14.349 22.3802 14.1094 22.1406C13.8698 21.901 13.75 21.6042 13.75 21.25C13.75 20.8958 13.8698 20.599 14.1094 20.3594C14.349 20.1198 14.6458 20 15 20C15.3542 20 15.651 20.1198 15.8906 20.3594C16.1302 20.599 16.25 20.8958 16.25 21.25C16.25 21.6042 16.1302 21.901 15.8906 22.1406C15.651 22.3802 15.3542 22.5 15 22.5ZM20 22.5C19.6458 22.5 19.349 22.3802 19.1094 22.1406C18.8698 21.901 18.75 21.6042 18.75 21.25C18.75 20.8958 18.8698 20.599 19.1094 20.3594C19.349 20.1198 19.6458 20 20 20C20.3542 20 20.651 20.1198 20.8906 20.3594C21.1302 20.599 21.25 20.8958 21.25 21.25C21.25 21.6042 21.1302 21.901 20.8906 22.1406C20.651 22.3802 20.3542 22.5 20 22.5ZM7.5 17.5C7.14583 17.5 6.84896 17.3802 6.60938 17.1406C6.36979 16.901 6.25 16.6042 6.25 16.25V15C6.25 12.7917 6.95833 10.875 8.375 9.25C9.79167 7.625 11.5833 6.66667 13.75 6.375V5C13.75 4.64583 13.8698 4.34896 14.1094 4.10938C14.349 3.86979 14.6458 3.75 15 3.75C15.3542 3.75 15.651 3.86979 15.8906 4.10938C16.1302 4.34896 16.25 4.64583 16.25 5V6.375C18.4167 6.66667 20.2083 7.625 21.625 9.25C23.0417 10.875 23.75 12.7917 23.75 15V16.25C23.75 16.6042 23.6302 16.901 23.3906 17.1406C23.151 17.3802 22.8542 17.5 22.5 17.5H7.5ZM8.75 15H21.25C21.25 13.2708 20.6406 11.7969 19.4219 10.5781C18.2031 9.35938 16.7292 8.75 15 8.75C13.2708 8.75 11.7969 9.35938 10.5781 10.5781C9.35938 11.7969 8.75 13.2708 8.75 15ZM10 26.25C9.64583 26.25 9.34896 26.1302 9.10938 25.8906C8.86979 25.651 8.75 25.3542 8.75 25C8.75 24.6458 8.86979 24.349 9.10938 24.1094C9.34896 23.8698 9.64583 23.75 10 23.75C10.3542 23.75 10.651 23.8698 10.8906 24.1094C11.1302 24.349 11.25 24.6458 11.25 25C11.25 25.3542 11.1302 25.651 10.8906 25.8906C10.651 26.1302 10.3542 26.25 10 26.25ZM15 26.25C14.6458 26.25 14.349 26.1302 14.1094 25.8906C13.8698 25.651 13.75 25.3542 13.75 25C13.75 24.6458 13.8698 24.349 14.1094 24.1094C14.349 23.8698 14.6458 23.75 15 23.75C15.3542 23.75 15.651 23.8698 15.8906 24.1094C16.1302 24.349 16.25 24.6458 16.25 25C16.25 25.3542 16.1302 25.651 15.8906 25.8906C15.651 26.1302 15.3542 26.25 15 26.25ZM20 26.25C19.6458 26.25 19.349 26.1302 19.1094 25.8906C18.8698 25.651 18.75 25.3542 18.75 25C18.75 24.6458 18.8698 24.349 19.1094 24.1094C19.349 23.8698 19.6458 23.75 20 23.75C20.3542 23.75 20.651 23.8698 20.8906 24.1094C21.1302 24.349 21.25 24.6458 21.25 25C21.25 25.3542 21.1302 25.651 20.8906 25.8906C20.651 26.1302 20.3542 26.25 20 26.25Z" fill="#1894C9"/>
</g>
</svg>
