<svg width="30" height="30" viewBox="0 0 30 30" fill="none" xmlns="http://www.w3.org/2000/svg">
<mask id="mask0_1117_2202" style="mask-type:alpha" maskUnits="userSpaceOnUse" x="0" y="0" width="30" height="30">
<rect width="30" height="30" fill="#D9D9D9"/>
</mask>
<g mask="url(#mask0_1117_2202)">
<path d="M13.125 18.125V19.375C13.125 19.8958 13.3073 20.3385 13.6719 20.7031C14.0365 21.0677 14.4792 21.25 15 21.25C15.5208 21.25 15.9635 21.0677 16.3281 20.7031C16.6927 20.3385 16.875 19.8958 16.875 19.375V18.125H18.125C18.6458 18.125 19.0885 17.9427 19.4531 17.5781C19.8177 17.2135 20 16.7708 20 16.25C20 15.7292 19.8177 15.2865 19.4531 14.9219C19.0885 14.5573 18.6458 14.375 18.125 14.375H16.875V13.125C16.875 12.6042 16.6927 12.1615 16.3281 11.7969C15.9635 11.4323 15.5208 11.25 15 11.25C14.4792 11.25 14.0365 11.4323 13.6719 11.7969C13.3073 12.1615 13.125 12.6042 13.125 13.125V14.375H11.875C11.3542 14.375 10.9115 14.5573 10.5469 14.9219C10.1823 15.2865 10 15.7292 10 16.25C10 16.7708 10.1823 17.2135 10.5469 17.5781C10.9115 17.9427 11.3542 18.125 11.875 18.125H13.125ZM7.5 26.25C6.8125 26.25 6.22396 26.0052 5.73438 25.5156C5.24479 25.026 5 24.4375 5 23.75V12.5C5 12.1042 5.08854 11.7292 5.26562 11.375C5.44271 11.0208 5.6875 10.7292 6 10.5L13.5 4.875C13.9375 4.54167 14.4375 4.375 15 4.375C15.5625 4.375 16.0625 4.54167 16.5 4.875L24 10.5C24.3125 10.7292 24.5573 11.0208 24.7344 11.375C24.9115 11.7292 25 12.1042 25 12.5V23.75C25 24.4375 24.7552 25.026 24.2656 25.5156C23.776 26.0052 23.1875 26.25 22.5 26.25H7.5ZM7.5 23.75H22.5V12.5L15 6.875L7.5 12.5V23.75Z" fill="#1E9A75"/>
</g>
</svg>
