<svg width="30" height="30" viewBox="0 0 30 30" fill="none" xmlns="http://www.w3.org/2000/svg">
<circle cx="15" cy="15" r="15" fill="#F5F5F5"/>
<mask id="mask0_241_2683" style="mask-type:luminance" maskUnits="userSpaceOnUse" x="9" y="8" width="13" height="14">
<path fill-rule="evenodd" clip-rule="evenodd" d="M9.54541 8.86377H21.2594V21.7771H9.54541V8.86377Z" fill="white"/>
</mask>
<g mask="url(#mask0_241_2683)">
<path fill-rule="evenodd" clip-rule="evenodd" d="M17.1206 10.2388L10.7013 18.2672C10.5847 18.4131 10.5417 18.6013 10.5847 18.7819L11.049 20.749L13.1211 20.7231C13.3181 20.721 13.5001 20.6331 13.6208 20.4831C15.8142 17.7388 19.9958 12.5065 20.1145 12.3531C20.2263 12.1717 20.2699 11.9153 20.2113 11.6685C20.1513 11.4156 19.9938 11.2008 19.7667 11.0638C19.7183 11.0303 18.5695 10.1385 18.534 10.1106C18.1017 9.76421 17.4711 9.82421 17.1206 10.2388V10.2388ZM10.6454 21.7772C10.4088 21.7772 10.2029 21.6149 10.1476 21.3838L9.58923 19.0172C9.47401 18.5269 9.58855 18.021 9.90287 17.6283L16.3256 9.59512C16.3283 9.59239 16.3304 9.58898 16.3331 9.58625C17.0374 8.74421 18.3111 8.62012 19.1701 9.30944C19.2042 9.33603 20.3449 10.2224 20.3449 10.2224C20.7595 10.4692 21.0833 10.9103 21.2061 11.4326C21.3281 11.9494 21.2395 12.4826 20.9551 12.9333C20.934 12.9667 20.9156 12.9953 14.4192 21.1226C14.1063 21.5126 13.6372 21.7397 13.1333 21.7458L10.6522 21.7772H10.6454Z" fill="#1C1B1F"/>
</g>
<path fill-rule="evenodd" clip-rule="evenodd" d="M19.2428 14.7849C19.1337 14.7849 19.0246 14.7502 18.9312 14.6793L15.2139 11.8238C14.9903 11.652 14.948 11.3315 15.1198 11.1065C15.2923 10.8829 15.6128 10.8413 15.8371 11.0131L19.555 13.8679C19.7787 14.0397 19.8209 14.3608 19.6484 14.5852C19.5482 14.7161 19.3962 14.7849 19.2428 14.7849" fill="#1C1B1F"/>
</svg>
