<svg width="20" height="20" viewBox="0 0 20 20" fill="none" xmlns="http://www.w3.org/2000/svg">
<path d="M1.47795 10.3492C1.78298 8.9766 3.00042 8 4.40651 8H15.5935C16.9996 8 18.217 8.9766 18.522 10.3492L19.4591 14.5661C19.7367 15.8152 18.7863 17 17.5068 17H2.49323C1.21374 17 0.263296 15.8152 0.540858 14.5661L1.47795 10.3492Z" fill="#EB9F86"/>
<path fill-rule="evenodd" clip-rule="evenodd" d="M4 6.16667C4 4.78595 5.15127 3.25 6.57143 3.25C7.0073 3.25 7.37225 3.31355 7.67708 3.42641C8.09024 2.58295 8.9751 2 10 2C11.0249 2 11.9098 2.58295 12.3229 3.42642C12.6278 3.31355 12.9927 3.25 13.4286 3.25C14.8487 3.25 16 4.78595 16 6.16667C16 6.6269 15.6269 7 15.1667 7H10H4.83333C4.3731 7 4 6.6269 4 6.16667Z" fill="#EB9F86"/>
<mask id="mask0_864_2257" style="mask-type:alpha" maskUnits="userSpaceOnUse" x="5" y="7" width="10" height="10">
<rect width="7.06072" height="7.06072" transform="matrix(0.708143 0.706069 -0.708143 0.706069 10 7)" fill="#D9D9D9"/>
</mask>
<g mask="url(#mask0_864_2257)">
<path d="M7.60417 13.3353C7.4554 13.187 7.38101 13.0139 7.38101 12.816C7.38101 12.6181 7.4554 12.445 7.60417 12.2967C7.66747 12.2336 7.71748 12.1777 7.7542 12.1291C7.79093 12.0805 7.80929 12.0325 7.80929 11.9851C7.80929 11.9377 7.79226 11.8884 7.75821 11.8371C7.72416 11.7858 7.67548 11.7287 7.61218 11.6655C7.46341 11.5172 7.38769 11.3454 7.38502 11.1502C7.38235 10.955 7.4554 10.7832 7.60417 10.6349C7.75294 10.4866 7.92655 10.4124 8.125 10.4124C8.32345 10.4124 8.49706 10.4866 8.64583 10.6349C8.70166 10.6906 8.74746 10.7504 8.78326 10.8143C8.81904 10.8782 8.84028 10.9417 8.84696 11.0048C8.85497 11.0714 8.88368 11.1293 8.93309 11.1786C8.98251 11.2279 9.04194 11.2525 9.11138 11.2525L10.8566 11.2525C10.926 11.2525 10.9901 11.2285 11.0489 11.1806C11.1076 11.1326 11.1424 11.0741 11.153 11.0048C11.1651 10.9417 11.1876 10.8782 11.2208 10.8143C11.2539 10.7504 11.2983 10.6906 11.3542 10.6349C11.5029 10.4866 11.6765 10.4124 11.875 10.4124C12.0735 10.4124 12.2471 10.4866 12.3958 10.6349C12.5446 10.7832 12.619 10.9563 12.619 11.1542C12.619 11.3521 12.5446 11.5252 12.3958 11.6735C12.3325 11.7366 12.2825 11.7925 12.2458 11.8411C12.2091 11.8897 12.1907 11.9377 12.1907 11.9851C12.1907 12.0325 12.2091 12.0805 12.2458 12.1291C12.2825 12.1777 12.3325 12.2336 12.3958 12.2967C12.5446 12.445 12.619 12.6181 12.619 12.816C12.619 13.0139 12.5446 13.187 12.3958 13.3353C12.2471 13.4836 12.0735 13.5578 11.875 13.5578C11.6765 13.5578 11.5029 13.4836 11.3542 13.3353C11.2983 13.2796 11.2539 13.2199 11.2207 13.1559C11.1876 13.092 11.1651 13.0285 11.153 12.9654C11.1397 12.8988 11.1056 12.8422 11.0509 12.7956C10.9961 12.749 10.934 12.7257 10.8646 12.7257H9.13542C9.06597 12.7257 9.00521 12.7464 8.95312 12.7876C8.90104 12.8289 8.86565 12.8828 8.84696 12.9494C8.83226 13.0099 8.80903 13.0754 8.77724 13.146C8.74546 13.2165 8.70166 13.2796 8.64583 13.3353C8.49706 13.4836 8.32345 13.5578 8.125 13.5578C7.92655 13.5578 7.75294 13.4836 7.60417 13.3353Z" fill="white"/>
</g>
</svg>
