<svg width="46" height="46" viewBox="0 0 46 46" fill="none" xmlns="http://www.w3.org/2000/svg">
<g filter="url(#filter0_d_1134_2203)">
<circle cx="23" cy="19" r="15" fill="white"/>
<mask id="mask0_1134_2203" style="mask-type:luminance" maskUnits="userSpaceOnUse" x="17" y="12" width="13" height="14">
<path fill-rule="evenodd" clip-rule="evenodd" d="M17.5454 12.8643H29.2594V25.7776H17.5454V12.8643Z" fill="white"/>
</mask>
<g mask="url(#mask0_1134_2203)">
<path fill-rule="evenodd" clip-rule="evenodd" d="M25.1206 14.2392L18.7013 22.2677C18.5847 22.4136 18.5417 22.6017 18.5847 22.7824L19.049 24.7495L21.1211 24.7236C21.3181 24.7215 21.5001 24.6336 21.6208 24.4836C23.8142 21.7392 27.9958 16.507 28.1145 16.3536C28.2263 16.1722 28.2699 15.9158 28.2113 15.669C28.1513 15.4161 27.9938 15.2013 27.7667 15.0642C27.7183 15.0308 26.5695 14.139 26.534 14.1111C26.1017 13.7647 25.4711 13.8247 25.1206 14.2392ZM18.6454 25.7777C18.4088 25.7777 18.2029 25.6154 18.1476 25.3842L17.5892 23.0177C17.474 22.5274 17.5886 22.0215 17.9029 21.6288L24.3256 13.5956C24.3283 13.5929 24.3304 13.5895 24.3331 13.5867C25.0374 12.7447 26.3111 12.6206 27.1701 13.3099C27.2042 13.3365 28.3449 14.2229 28.3449 14.2229C28.7595 14.4697 29.0833 14.9108 29.2061 15.4331C29.3281 15.9499 29.2395 16.4831 28.9551 16.9338C28.934 16.9672 28.9156 16.9958 22.4192 25.1231C22.1063 25.5131 21.6372 25.7402 21.1333 25.7463L18.6522 25.7777H18.6454Z" fill="#4A4A4A"/>
</g>
<path fill-rule="evenodd" clip-rule="evenodd" d="M27.2428 18.7859C27.1337 18.7859 27.0246 18.7511 26.9312 18.6802L23.2139 15.8248C22.9903 15.653 22.948 15.3325 23.1198 15.1075C23.2923 14.8839 23.6128 14.8423 23.8371 15.0141L27.555 17.8689C27.7787 18.0407 27.8209 18.3618 27.6484 18.5861C27.5482 18.717 27.3962 18.7859 27.2428 18.7859Z" fill="#4A4A4A"/>
</g>
<defs>
<filter id="filter0_d_1134_2203" x="0" y="0" width="46" height="46" filterUnits="userSpaceOnUse" color-interpolation-filters="sRGB">
<feFlood flood-opacity="0" result="BackgroundImageFix"/>
<feColorMatrix in="SourceAlpha" type="matrix" values="0 0 0 0 0 0 0 0 0 0 0 0 0 0 0 0 0 0 127 0" result="hardAlpha"/>
<feOffset dy="4"/>
<feGaussianBlur stdDeviation="4"/>
<feComposite in2="hardAlpha" operator="out"/>
<feColorMatrix type="matrix" values="0 0 0 0 0 0 0 0 0 0 0 0 0 0 0 0 0 0 0.25 0"/>
<feBlend mode="normal" in2="BackgroundImageFix" result="effect1_dropShadow_1134_2203"/>
<feBlend mode="normal" in="SourceGraphic" in2="effect1_dropShadow_1134_2203" result="shape"/>
</filter>
</defs>
</svg>
