<svg width="46" height="46" viewBox="0 0 46 46" fill="none" xmlns="http://www.w3.org/2000/svg">
<g filter="url(#filter0_d_1072_2203)">
<circle cx="23" cy="19" r="15" fill="white"/>
<mask id="mask0_1072_2203" style="mask-type:luminance" maskUnits="userSpaceOnUse" x="17" y="12" width="13" height="14">
<path fill-rule="evenodd" clip-rule="evenodd" d="M17.5454 12.8638H29.2594V25.7771H17.5454V12.8638Z" fill="white"/>
</mask>
<g mask="url(#mask0_1072_2203)">
<path fill-rule="evenodd" clip-rule="evenodd" d="M25.1206 14.2388L18.7013 22.2672C18.5847 22.4131 18.5417 22.6013 18.5847 22.7819L19.049 24.749L21.1211 24.7231C21.3181 24.721 21.5001 24.6331 21.6208 24.4831C23.8142 21.7388 27.9958 16.5065 28.1145 16.3531C28.2263 16.1717 28.2699 15.9153 28.2113 15.6685C28.1513 15.4156 27.9938 15.2008 27.7667 15.0638C27.7183 15.0303 26.5695 14.1385 26.534 14.1106C26.1017 13.7642 25.4711 13.8242 25.1206 14.2388ZM18.6454 25.7772C18.4088 25.7772 18.2029 25.6149 18.1476 25.3838L17.5892 23.0172C17.474 22.5269 17.5886 22.021 17.9029 21.6283L24.3256 13.5951C24.3283 13.5924 24.3304 13.589 24.3331 13.5863C25.0374 12.7442 26.3111 12.6201 27.1701 13.3094C27.2042 13.336 28.3449 14.2224 28.3449 14.2224C28.7595 14.4692 29.0833 14.9103 29.2061 15.4326C29.3281 15.9494 29.2395 16.4826 28.9551 16.9333C28.934 16.9667 28.9156 16.9953 22.4192 25.1226C22.1063 25.5126 21.6372 25.7397 21.1333 25.7458L18.6522 25.7772H18.6454Z" fill="#4A4A4A"/>
</g>
<path fill-rule="evenodd" clip-rule="evenodd" d="M27.2428 18.7849C27.1337 18.7849 27.0246 18.7502 26.9312 18.6793L23.2139 15.8238C22.9903 15.652 22.948 15.3315 23.1198 15.1065C23.2923 14.8829 23.6128 14.8413 23.8371 15.0131L27.555 17.8679C27.7787 18.0397 27.8209 18.3608 27.6484 18.5852C27.5482 18.7161 27.3962 18.7849 27.2428 18.7849Z" fill="#4A4A4A"/>
</g>
<defs>
<filter id="filter0_d_1072_2203" x="0" y="0" width="46" height="46" filterUnits="userSpaceOnUse" color-interpolation-filters="sRGB">
<feFlood flood-opacity="0" result="BackgroundImageFix"/>
<feColorMatrix in="SourceAlpha" type="matrix" values="0 0 0 0 0 0 0 0 0 0 0 0 0 0 0 0 0 0 127 0" result="hardAlpha"/>
<feOffset dy="4"/>
<feGaussianBlur stdDeviation="4"/>
<feComposite in2="hardAlpha" operator="out"/>
<feColorMatrix type="matrix" values="0 0 0 0 0 0 0 0 0 0 0 0 0 0 0 0 0 0 0.25 0"/>
<feBlend mode="normal" in2="BackgroundImageFix" result="effect1_dropShadow_1072_2203"/>
<feBlend mode="normal" in="SourceGraphic" in2="effect1_dropShadow_1072_2203" result="shape"/>
</filter>
</defs>
</svg>
