<svg width="20" height="20" viewBox="0 0 20 20" fill="none" xmlns="http://www.w3.org/2000/svg">
<circle cx="10" cy="10" r="8" fill="white"/>
<mask id="mask0_968_2216" style="mask-type:alpha" maskUnits="userSpaceOnUse" x="0" y="0" width="20" height="20">
<rect width="20" height="20" fill="#D9D9D9"/>
</mask>
<g mask="url(#mask0_968_2216)">
<path d="M10.0015 17.9163C8.90659 17.9163 7.8774 17.7085 6.91395 17.293C5.9505 16.8774 5.11243 16.3135 4.39975 15.6011C3.68705 14.8887 3.12284 14.051 2.7071 13.088C2.29136 12.125 2.0835 11.096 2.0835 10.0011C2.0835 8.90611 2.29131 7.87691 2.70693 6.91347C3.12256 5.95001 3.68662 5.11194 4.39912 4.39926C5.11162 3.68656 5.94947 3.12235 6.91266 2.70661C7.87584 2.29088 8.905 2.08301 10.0001 2.08301C10.6935 2.08301 11.3655 2.17142 12.0162 2.34824C12.6668 2.52506 13.2892 2.78067 13.8832 3.11507C14.0434 3.20482 14.1481 3.33409 14.1973 3.50288C14.2464 3.67169 14.2176 3.82927 14.1107 3.97563C14.0039 4.12199 13.8626 4.21361 13.6869 4.25047C13.5111 4.28733 13.3415 4.26088 13.1781 4.17113C12.6909 3.8987 12.1783 3.6909 11.6404 3.54774C11.1024 3.40457 10.5557 3.33299 10.0001 3.33299C8.15292 3.33299 6.58 3.98229 5.28139 5.2809C3.98278 6.57952 3.33348 8.15243 3.33348 9.99965C3.33348 11.8469 3.98278 13.4198 5.28139 14.7184C6.58 16.017 8.15292 16.6663 10.0001 16.6663C11.8474 16.6663 13.4203 16.017 14.7189 14.7184C16.0175 13.4198 16.6668 11.8469 16.6668 9.99965C16.6668 9.83838 16.6607 9.68213 16.6484 9.53093C16.6361 9.37973 16.615 9.22454 16.5851 9.06534C16.5573 8.88788 16.5877 8.71825 16.6764 8.55645C16.7651 8.39466 16.8986 8.28972 17.0769 8.24163C17.2447 8.19356 17.4005 8.2144 17.5442 8.30413C17.6879 8.39388 17.7736 8.52315 17.8014 8.69195C17.8399 8.90242 17.8687 9.11532 17.8879 9.33064C17.9072 9.54595 17.9168 9.76896 17.9168 9.99965C17.9168 11.0948 17.709 12.124 17.2935 13.0871C16.8779 14.0503 16.3139 14.8882 15.6016 15.6007C14.8892 16.3132 14.0515 16.8772 13.0885 17.2929C12.1255 17.7085 11.0965 17.9163 10.0015 17.9163ZM8.81746 11.7881L16.5995 3.99326C16.7149 3.87788 16.8578 3.81672 17.0282 3.80978C17.1986 3.80283 17.349 3.86458 17.4794 3.99501C17.599 4.11456 17.6588 4.26035 17.6588 4.43236C17.6588 4.60436 17.5984 4.75072 17.4777 4.87145L9.34468 13.0173C9.19405 13.1679 9.0183 13.2432 8.81746 13.2432C8.61659 13.2432 8.44084 13.1679 8.29021 13.0173L6.00335 10.7304C5.88798 10.615 5.82895 10.47 5.82627 10.2953C5.8236 10.1207 5.88263 9.97296 6.00335 9.85224C6.12407 9.7315 6.27044 9.67113 6.44245 9.67113C6.61445 9.67113 6.76082 9.7315 6.88154 9.85224L8.81746 11.7881Z" fill="#06ACF4"/>
</g>
</svg>
