<svg width="24" height="24" viewBox="0 0 24 24" fill="none" xmlns="http://www.w3.org/2000/svg">
<mask id="mask0_530_2879" style="mask-type:alpha" maskUnits="userSpaceOnUse" x="0" y="0" width="24" height="24">
<rect width="24" height="24" fill="#D9D9D9"/>
</mask>
<g mask="url(#mask0_530_2879)">
<path d="M12 21.9995C11.45 21.9995 10.9792 21.8037 10.5875 21.412C10.1958 21.0203 10 20.5495 10 19.9995H14C14 20.5495 13.8042 21.0203 13.4125 21.412C13.0208 21.8037 12.55 21.9995 12 21.9995ZM5 18.9995C4.71667 18.9995 4.47917 18.9037 4.2875 18.712C4.09583 18.5203 4 18.2828 4 17.9995C4 17.7162 4.09583 17.4787 4.2875 17.287C4.47917 17.0953 4.71667 16.9995 5 16.9995H6V9.99951C6 8.61618 6.41667 7.38701 7.25 6.31201C8.08333 5.23701 9.16667 4.53284 10.5 4.19951V3.49951C10.5 3.08284 10.6458 2.72868 10.9375 2.43701C11.2292 2.14535 11.5833 1.99951 12 1.99951C12.4167 1.99951 12.7708 2.14535 13.0625 2.43701C13.3542 2.72868 13.5 3.08284 13.5 3.49951V3.82451C13.3167 4.19118 13.1833 4.56618 13.1 4.94951C13.0167 5.33284 12.9833 5.72451 13 6.12451C12.8333 6.09118 12.6708 6.06201 12.5125 6.03701C12.3542 6.01201 12.1833 5.99951 12 5.99951C10.9 5.99951 9.95833 6.39118 9.175 7.17451C8.39167 7.95784 8 8.89951 8 9.99951V16.9995H16V10.5745C16.3 10.7078 16.6208 10.812 16.9625 10.887C17.3042 10.962 17.65 10.9995 18 10.9995V16.9995H19C19.2833 16.9995 19.5208 17.0953 19.7125 17.287C19.9042 17.4787 20 17.7162 20 17.9995C20 18.2828 19.9042 18.5203 19.7125 18.712C19.5208 18.9037 19.2833 18.9995 19 18.9995H5ZM18 8.99951C17.1667 8.99951 16.4583 8.70784 15.875 8.12451C15.2917 7.54118 15 6.83284 15 5.99951C15 5.16618 15.2917 4.45784 15.875 3.87451C16.4583 3.29118 17.1667 2.99951 18 2.99951C18.8333 2.99951 19.5417 3.29118 20.125 3.87451C20.7083 4.45784 21 5.16618 21 5.99951C21 6.83284 20.7083 7.54118 20.125 8.12451C19.5417 8.70784 18.8333 8.99951 18 8.99951Z" fill="#FA9E52"/>
</g>
</svg>
