<svg width="21" height="21" viewBox="0 0 21 21" fill="none" xmlns="http://www.w3.org/2000/svg">
<path d="M2.68766 9.62988C1.9585 9.62988 1.34218 9.37815 0.838705 8.87467C0.335232 8.3712 0.0834961 7.75488 0.0834961 7.02572C0.0834961 6.29655 0.335232 5.68023 0.838705 5.17676C1.34218 4.67329 1.9585 4.42155 2.68766 4.42155C3.41683 4.42155 4.03315 4.67329 4.53662 5.17676C5.04009 5.68023 5.29183 6.29655 5.29183 7.02572C5.29183 7.75488 5.04009 8.3712 4.53662 8.87467C4.03315 9.37815 3.41683 9.62988 2.68766 9.62988ZM7.37516 5.46322C6.646 5.46322 6.02968 5.21148 5.5262 4.70801C5.02273 4.20454 4.771 3.58822 4.771 2.85905C4.771 2.12988 5.02273 1.51356 5.5262 1.01009C6.02968 0.506619 6.646 0.254883 7.37516 0.254883C8.10433 0.254883 8.72065 0.506619 9.22412 1.01009C9.72759 1.51356 9.97933 2.12988 9.97933 2.85905C9.97933 3.58822 9.72759 4.20454 9.22412 4.70801C8.72065 5.21148 8.10433 5.46322 7.37516 5.46322ZM13.6252 5.46322C12.896 5.46322 12.2797 5.21148 11.7762 4.70801C11.2727 4.20454 11.021 3.58822 11.021 2.85905C11.021 2.12988 11.2727 1.51356 11.7762 1.01009C12.2797 0.506619 12.896 0.254883 13.6252 0.254883C14.3543 0.254883 14.9707 0.506619 15.4741 1.01009C15.9776 1.51356 16.2293 2.12988 16.2293 2.85905C16.2293 3.58822 15.9776 4.20454 15.4741 4.70801C14.9707 5.21148 14.3543 5.46322 13.6252 5.46322ZM18.3127 9.62988C17.5835 9.62988 16.9672 9.37815 16.4637 8.87467C15.9602 8.3712 15.7085 7.75488 15.7085 7.02572C15.7085 6.29655 15.9602 5.68023 16.4637 5.17676C16.9672 4.67329 17.5835 4.42155 18.3127 4.42155C19.0418 4.42155 19.6581 4.67329 20.1616 5.17676C20.6651 5.68023 20.9168 6.29655 20.9168 7.02572C20.9168 7.75488 20.6651 8.3712 20.1616 8.87467C19.6581 9.37815 19.0418 9.62988 18.3127 9.62988ZM4.92725 20.0465C4.146 20.0465 3.49061 19.7471 2.9611 19.1481C2.43159 18.5492 2.16683 17.8417 2.16683 17.0257C2.16683 16.1229 2.47499 15.333 3.09131 14.6559C3.70763 13.9788 4.31961 13.3104 4.92725 12.6507C5.43072 12.1125 5.86475 11.5266 6.22933 10.8929C6.59391 10.2592 7.02794 9.6646 7.53141 9.10905C7.91336 8.65766 8.35607 8.2844 8.85954 7.98926C9.36301 7.69412 9.90989 7.54655 10.5002 7.54655C11.0904 7.54655 11.6373 7.68544 12.1408 7.96322C12.6443 8.24099 13.087 8.60558 13.4689 9.05697C13.955 9.61252 14.3847 10.2115 14.758 10.8538C15.1312 11.4962 15.5696 12.0952 16.0731 12.6507C16.6807 13.3104 17.2927 13.9788 17.909 14.6559C18.5253 15.333 18.8335 16.1229 18.8335 17.0257C18.8335 17.8417 18.5687 18.5492 18.0392 19.1481C17.5097 19.7471 16.8543 20.0465 16.0731 20.0465C15.1356 20.0465 14.2068 19.9684 13.2866 19.8122C12.3665 19.6559 11.4377 19.5778 10.5002 19.5778C9.56266 19.5778 8.63384 19.6559 7.71371 19.8122C6.79357 19.9684 5.86475 20.0465 4.92725 20.0465Z" fill="#721E9A"/>
</svg>
