<svg width="20" height="20" viewBox="0 0 20 20" fill="none" xmlns="http://www.w3.org/2000/svg">
<mask id="mask0_863_2178" style="mask-type:alpha" maskUnits="userSpaceOnUse" x="0" y="0" width="20" height="20">
<rect width="20" height="20" fill="#D9D9D9"/>
</mask>
<g mask="url(#mask0_863_2178)">
<path d="M7.9165 18.3337C7.09706 18.3337 6.40609 18.0524 5.84359 17.4899C5.28109 16.9274 4.99984 16.2364 4.99984 15.417C4.99984 15.292 5.0172 15.1948 5.05192 15.1253C5.08664 15.0559 5.08317 15.0003 5.0415 14.9587C4.99984 14.917 4.94428 14.9135 4.87484 14.9482C4.80539 14.983 4.70817 15.0003 4.58317 15.0003C3.76373 15.0003 3.07275 14.7191 2.51025 14.1566C1.94775 13.5941 1.6665 12.9031 1.6665 12.0837C1.6665 11.2642 1.94775 10.5732 2.51025 10.0107C3.07275 9.44824 3.76373 9.16699 4.58317 9.16699C4.90261 9.16699 5.19428 9.20866 5.45817 9.29199C5.72206 9.37533 5.97206 9.50033 6.20817 9.66699L9.6665 6.20866C9.49984 5.97255 9.37484 5.72255 9.2915 5.45866C9.20817 5.19477 9.1665 4.9031 9.1665 4.58366C9.1665 3.76421 9.44775 3.07324 10.0103 2.51074C10.5728 1.94824 11.2637 1.66699 12.0832 1.66699C12.9026 1.66699 13.5936 1.94824 14.1561 2.51074C14.7186 3.07324 14.9998 3.76421 14.9998 4.58366C14.9998 4.70866 14.9825 4.80588 14.9478 4.87533C14.913 4.94477 14.9165 5.00033 14.9582 5.04199C14.9998 5.08366 15.0554 5.08713 15.1248 5.05241C15.1943 5.01769 15.2915 5.00033 15.4165 5.00033C16.2359 5.00033 16.9269 5.28158 17.4894 5.84408C18.0519 6.40658 18.3332 7.09755 18.3332 7.91699C18.3332 8.73644 18.0519 9.42741 17.4894 9.98991C16.9269 10.5524 16.2359 10.8337 15.4165 10.8337C15.0971 10.8337 14.8054 10.792 14.5415 10.7087C14.2776 10.6253 14.0276 10.5003 13.7915 10.3337L10.3332 13.792C10.4998 14.0281 10.6248 14.2781 10.7082 14.542C10.7915 14.8059 10.8332 15.0975 10.8332 15.417C10.8332 16.2364 10.5519 16.9274 9.98942 17.4899C9.42692 18.0524 8.73595 18.3337 7.9165 18.3337Z" fill="#B4C7A0"/>
</g>
</svg>
