<svg width="20" height="20" viewBox="0 0 20 20" fill="none" xmlns="http://www.w3.org/2000/svg">
<rect x="1" y="12" width="18" height="6" rx="3" fill="#C2B39B"/>
<rect x="3" y="8" width="14" height="6" rx="3" fill="#C2B39B"/>
<rect x="8" y="4" width="5" height="5" rx="2.5" fill="#C2B39B"/>
<rect x="5" y="5" width="10" height="7" rx="3.5" fill="#C2B39B"/>
<rect x="5" y="5" width="10" height="7" rx="3.5" fill="#C2B39B"/>
<rect width="4.8559" height="3.18383" rx="1.59192" transform="matrix(0.540342 0.841446 -0.860585 0.509306 10.7402 3)" fill="#C2B39B"/>
<path d="M8 5C8 3.56148 7.48267 2.89896 7.19219 2.4543C7.04117 2.22311 7.22015 2.02328 7.4891 2.08587C9.02406 2.44303 13.3619 3.91441 12.5 6.5C11.7929 8.62132 7.5 7 8 5Z" fill="#C2B39B"/>
</svg>
