<svg width="120" height="120" viewBox="0 0 120 120" fill="none" xmlns="http://www.w3.org/2000/svg">
<g clip-path="url(#clip0_1055_2222)">
<path d="M47 1.60002C20.4 7.30002 0 32.7 0 60C0 87.7 20.4 112.7 47.7 118.5C67.7 122.8 87.2 116.8 102 102C125.9 78.2 125.9 42 102.1 18C87.3 3.00003 67.5 -2.89998 47 1.60002ZM70.6 21.1C80.9 27.4 82.7 41.8 74.4 51C67.1 59.1 53.7 59.4 46.2 51.7C38.1 43.4 38.1 31.9 46 24C48.2 21.8 51.4 19.6 53.2 19.1C58.1 17.6 66.5 18.5 70.6 21.1ZM80.7 69.3C88.3 73.4 93.3 83.9 90.6 90.3C87.8 97.2 72.4 104 59.8 104C47.1 103.9 32.2 97.2 29.3 90.2C26.9 84.5 31 74.7 37.6 70.3C41.8 67.6 46 67.1 62 67.3C74.3 67.5 78.1 67.9 80.7 69.3Z" fill="#CEDBEA"/>
</g>
<defs>
<clipPath id="clip0_1055_2222">
<rect width="120" height="120" fill="white"/>
</clipPath>
</defs>
</svg>
